<mxfile host="app.diagrams.net" modified="2024-03-28T18:46:02.989Z" agent="Mozilla/5.0 (Windows NT 10.0; Win64; x64) AppleWebKit/537.36 (KHTML, like Gecko) Chrome/123.0.0.0 Safari/537.36" etag="9IozHC4rQlBNH9hfu9OP" version="24.2.1" type="device">
  <diagram name="Page-1" id="p5wULG9aZNoFwc17AjxW">
    <mxGraphModel dx="1969" dy="887" grid="1" gridSize="10" guides="1" tooltips="1" connect="1" arrows="1" fold="1" page="1" pageScale="1" pageWidth="850" pageHeight="1100" math="0" shadow="0">
      <root>
        <mxCell id="0" />
        <mxCell id="1" parent="0" />
        <mxCell id="i-aHLIUqa0NCSRjYnD6V-13" style="edgeStyle=orthogonalEdgeStyle;rounded=0;orthogonalLoop=1;jettySize=auto;html=1;exitX=0;exitY=1;exitDx=0;exitDy=0;entryX=0.75;entryY=0;entryDx=0;entryDy=0;" parent="1" source="i-aHLIUqa0NCSRjYnD6V-1" target="i-aHLIUqa0NCSRjYnD6V-3" edge="1">
          <mxGeometry relative="1" as="geometry" />
        </mxCell>
        <mxCell id="i-aHLIUqa0NCSRjYnD6V-30" style="edgeStyle=orthogonalEdgeStyle;rounded=0;orthogonalLoop=1;jettySize=auto;html=1;exitX=0.5;exitY=1;exitDx=0;exitDy=0;entryX=0.5;entryY=0;entryDx=0;entryDy=0;" parent="1" source="i-aHLIUqa0NCSRjYnD6V-1" target="i-aHLIUqa0NCSRjYnD6V-15" edge="1">
          <mxGeometry relative="1" as="geometry" />
        </mxCell>
        <mxCell id="i-aHLIUqa0NCSRjYnD6V-1" value="1&lt;br&gt;Register" style="ellipse;whiteSpace=wrap;html=1;aspect=fixed;fontStyle=1" parent="1" vertex="1">
          <mxGeometry x="460" y="90" width="80" height="80" as="geometry" />
        </mxCell>
        <mxCell id="i-aHLIUqa0NCSRjYnD6V-4" style="edgeStyle=orthogonalEdgeStyle;rounded=0;orthogonalLoop=1;jettySize=auto;html=1;exitX=1;exitY=0;exitDx=0;exitDy=0;entryX=0;entryY=0.5;entryDx=0;entryDy=0;" parent="1" source="i-aHLIUqa0NCSRjYnD6V-3" target="i-aHLIUqa0NCSRjYnD6V-1" edge="1">
          <mxGeometry relative="1" as="geometry">
            <Array as="points">
              <mxPoint x="240" y="270" />
              <mxPoint x="240" y="130" />
            </Array>
          </mxGeometry>
        </mxCell>
        <mxCell id="i-aHLIUqa0NCSRjYnD6V-17" style="edgeStyle=orthogonalEdgeStyle;rounded=0;orthogonalLoop=1;jettySize=auto;html=1;exitX=1;exitY=0.25;exitDx=0;exitDy=0;" parent="1" source="i-aHLIUqa0NCSRjYnD6V-3" edge="1">
          <mxGeometry relative="1" as="geometry">
            <mxPoint x="460" y="285" as="targetPoint" />
          </mxGeometry>
        </mxCell>
        <mxCell id="i-aHLIUqa0NCSRjYnD6V-35" style="edgeStyle=orthogonalEdgeStyle;rounded=0;orthogonalLoop=1;jettySize=auto;html=1;exitX=0.75;exitY=1;exitDx=0;exitDy=0;entryX=0;entryY=0.5;entryDx=0;entryDy=0;" parent="1" source="i-aHLIUqa0NCSRjYnD6V-3" target="i-aHLIUqa0NCSRjYnD6V-29" edge="1">
          <mxGeometry relative="1" as="geometry" />
        </mxCell>
        <mxCell id="S4RFcMp_AwZqT-dKzcBG-21" style="edgeStyle=orthogonalEdgeStyle;rounded=0;orthogonalLoop=1;jettySize=auto;html=1;exitX=0;exitY=0.5;exitDx=0;exitDy=0;entryX=0.5;entryY=0;entryDx=0;entryDy=0;" edge="1" parent="1" source="i-aHLIUqa0NCSRjYnD6V-3" target="S4RFcMp_AwZqT-dKzcBG-1">
          <mxGeometry relative="1" as="geometry" />
        </mxCell>
        <mxCell id="i-aHLIUqa0NCSRjYnD6V-3" value="User&lt;span&gt;s&lt;/span&gt;" style="rounded=0;whiteSpace=wrap;html=1;fontStyle=1" parent="1" vertex="1">
          <mxGeometry x="180" y="270" width="120" height="60" as="geometry" />
        </mxCell>
        <mxCell id="i-aHLIUqa0NCSRjYnD6V-5" value="D1" style="html=1;dashed=0;whiteSpace=wrap;shape=mxgraph.dfd.dataStoreID;align=left;spacingLeft=3;points=[[0,0],[0.5,0],[1,0],[0,0.5],[1,0.5],[0,1],[0.5,1],[1,1]];" parent="1" vertex="1">
          <mxGeometry x="680" y="170" width="100" height="30" as="geometry" />
        </mxCell>
        <mxCell id="i-aHLIUqa0NCSRjYnD6V-6" value="users" style="text;html=1;align=center;verticalAlign=middle;resizable=0;points=[];autosize=1;strokeColor=none;fillColor=none;fontStyle=1" parent="1" vertex="1">
          <mxGeometry x="720" y="170" width="50" height="30" as="geometry" />
        </mxCell>
        <mxCell id="i-aHLIUqa0NCSRjYnD6V-7" style="edgeStyle=orthogonalEdgeStyle;rounded=0;orthogonalLoop=1;jettySize=auto;html=1;exitX=1;exitY=0.5;exitDx=0;exitDy=0;entryX=0.227;entryY=-0.03;entryDx=0;entryDy=0;entryPerimeter=0;" parent="1" source="i-aHLIUqa0NCSRjYnD6V-1" target="i-aHLIUqa0NCSRjYnD6V-6" edge="1">
          <mxGeometry relative="1" as="geometry" />
        </mxCell>
        <mxCell id="i-aHLIUqa0NCSRjYnD6V-8" value="Request for Registration" style="text;html=1;align=center;verticalAlign=middle;resizable=0;points=[];autosize=1;strokeColor=none;fillColor=none;fontStyle=1" parent="1" vertex="1">
          <mxGeometry x="300" y="100" width="150" height="30" as="geometry" />
        </mxCell>
        <mxCell id="i-aHLIUqa0NCSRjYnD6V-9" value="Check for Registration" style="text;html=1;align=center;verticalAlign=middle;resizable=0;points=[];autosize=1;strokeColor=none;fillColor=none;fontStyle=1" parent="1" vertex="1">
          <mxGeometry x="545" y="100" width="150" height="30" as="geometry" />
        </mxCell>
        <mxCell id="i-aHLIUqa0NCSRjYnD6V-10" value="" style="endArrow=classic;html=1;rounded=0;entryX=1;entryY=1;entryDx=0;entryDy=0;" parent="1" target="i-aHLIUqa0NCSRjYnD6V-1" edge="1">
          <mxGeometry width="50" height="50" relative="1" as="geometry">
            <mxPoint x="710" y="170" as="sourcePoint" />
            <mxPoint x="540" y="150" as="targetPoint" />
            <Array as="points">
              <mxPoint x="710" y="160" />
            </Array>
          </mxGeometry>
        </mxCell>
        <mxCell id="i-aHLIUqa0NCSRjYnD6V-12" value="Response Back" style="text;html=1;align=center;verticalAlign=middle;resizable=0;points=[];autosize=1;strokeColor=none;fillColor=none;fontStyle=1" parent="1" vertex="1">
          <mxGeometry x="565" y="160" width="110" height="30" as="geometry" />
        </mxCell>
        <mxCell id="i-aHLIUqa0NCSRjYnD6V-14" value="Accept/ Reject" style="text;html=1;align=center;verticalAlign=middle;resizable=0;points=[];autosize=1;strokeColor=none;fillColor=none;fontStyle=1" parent="1" vertex="1">
          <mxGeometry x="300" y="160" width="110" height="30" as="geometry" />
        </mxCell>
        <mxCell id="S4RFcMp_AwZqT-dKzcBG-9" style="edgeStyle=orthogonalEdgeStyle;rounded=0;orthogonalLoop=1;jettySize=auto;html=1;exitX=0.5;exitY=1;exitDx=0;exitDy=0;entryX=0.5;entryY=0;entryDx=0;entryDy=0;" edge="1" parent="1" source="i-aHLIUqa0NCSRjYnD6V-15" target="i-aHLIUqa0NCSRjYnD6V-47">
          <mxGeometry relative="1" as="geometry" />
        </mxCell>
        <mxCell id="S4RFcMp_AwZqT-dKzcBG-11" style="edgeStyle=orthogonalEdgeStyle;rounded=0;orthogonalLoop=1;jettySize=auto;html=1;exitX=1;exitY=1;exitDx=0;exitDy=0;entryX=0;entryY=1;entryDx=0;entryDy=0;" edge="1" parent="1" source="i-aHLIUqa0NCSRjYnD6V-3">
          <mxGeometry relative="1" as="geometry">
            <mxPoint x="299.14" y="330" as="sourcePoint" />
            <mxPoint x="700.8557287525381" y="568.2842712474618" as="targetPoint" />
            <Array as="points">
              <mxPoint x="300" y="333" />
              <mxPoint x="299" y="333" />
              <mxPoint x="299" y="570" />
              <mxPoint x="679" y="570" />
              <mxPoint x="679" y="568" />
            </Array>
          </mxGeometry>
        </mxCell>
        <mxCell id="i-aHLIUqa0NCSRjYnD6V-15" value="2&lt;br&gt;Login" style="ellipse;whiteSpace=wrap;html=1;aspect=fixed;fontStyle=1" parent="1" vertex="1">
          <mxGeometry x="460" y="250" width="80" height="80" as="geometry" />
        </mxCell>
        <mxCell id="i-aHLIUqa0NCSRjYnD6V-18" style="edgeStyle=orthogonalEdgeStyle;rounded=0;orthogonalLoop=1;jettySize=auto;html=1;exitX=1;exitY=0;exitDx=0;exitDy=0;entryX=0.2;entryY=1;entryDx=0;entryDy=0;entryPerimeter=0;" parent="1" source="i-aHLIUqa0NCSRjYnD6V-15" target="i-aHLIUqa0NCSRjYnD6V-5" edge="1">
          <mxGeometry relative="1" as="geometry" />
        </mxCell>
        <mxCell id="i-aHLIUqa0NCSRjYnD6V-21" value="" style="endArrow=classic;html=1;rounded=0;exitX=0.374;exitY=1;exitDx=0;exitDy=0;exitPerimeter=0;entryX=1;entryY=0.5;entryDx=0;entryDy=0;" parent="1" source="i-aHLIUqa0NCSRjYnD6V-6" target="i-aHLIUqa0NCSRjYnD6V-15" edge="1">
          <mxGeometry width="50" height="50" relative="1" as="geometry">
            <mxPoint x="560" y="290" as="sourcePoint" />
            <mxPoint x="570" y="330" as="targetPoint" />
            <Array as="points">
              <mxPoint x="740" y="290" />
            </Array>
          </mxGeometry>
        </mxCell>
        <mxCell id="i-aHLIUqa0NCSRjYnD6V-22" value="Check to login" style="text;html=1;align=center;verticalAlign=middle;resizable=0;points=[];autosize=1;strokeColor=none;fillColor=none;fontStyle=1" parent="1" vertex="1">
          <mxGeometry x="565" y="240" width="100" height="30" as="geometry" />
        </mxCell>
        <mxCell id="i-aHLIUqa0NCSRjYnD6V-23" value="Response" style="text;html=1;align=center;verticalAlign=middle;resizable=0;points=[];autosize=1;strokeColor=none;fillColor=none;fontStyle=1" parent="1" vertex="1">
          <mxGeometry x="595" y="285" width="80" height="30" as="geometry" />
        </mxCell>
        <mxCell id="i-aHLIUqa0NCSRjYnD6V-24" value="Request for login" style="text;html=1;align=center;verticalAlign=middle;resizable=0;points=[];autosize=1;strokeColor=none;fillColor=none;fontStyle=1" parent="1" vertex="1">
          <mxGeometry x="315" y="260" width="120" height="30" as="geometry" />
        </mxCell>
        <mxCell id="i-aHLIUqa0NCSRjYnD6V-26" value="" style="endArrow=classic;html=1;rounded=0;entryX=1;entryY=0.805;entryDx=0;entryDy=0;exitX=0;exitY=1;exitDx=0;exitDy=0;entryPerimeter=0;" parent="1" source="i-aHLIUqa0NCSRjYnD6V-15" target="i-aHLIUqa0NCSRjYnD6V-3" edge="1">
          <mxGeometry width="50" height="50" relative="1" as="geometry">
            <mxPoint x="460" y="300" as="sourcePoint" />
            <mxPoint x="510" y="250" as="targetPoint" />
          </mxGeometry>
        </mxCell>
        <mxCell id="i-aHLIUqa0NCSRjYnD6V-28" value="Accept/ Reject" style="text;html=1;align=center;verticalAlign=middle;resizable=0;points=[];autosize=1;strokeColor=none;fillColor=none;fontStyle=1" parent="1" vertex="1">
          <mxGeometry x="325" y="320" width="110" height="30" as="geometry" />
        </mxCell>
        <mxCell id="i-aHLIUqa0NCSRjYnD6V-33" value="" style="edgeStyle=orthogonalEdgeStyle;rounded=0;orthogonalLoop=1;jettySize=auto;html=1;" parent="1" source="i-aHLIUqa0NCSRjYnD6V-29" target="i-aHLIUqa0NCSRjYnD6V-31" edge="1">
          <mxGeometry relative="1" as="geometry" />
        </mxCell>
        <mxCell id="i-aHLIUqa0NCSRjYnD6V-42" style="edgeStyle=orthogonalEdgeStyle;rounded=0;orthogonalLoop=1;jettySize=auto;html=1;exitX=0;exitY=1;exitDx=0;exitDy=0;entryX=0.5;entryY=1;entryDx=0;entryDy=0;" parent="1" source="i-aHLIUqa0NCSRjYnD6V-29" target="i-aHLIUqa0NCSRjYnD6V-3" edge="1">
          <mxGeometry relative="1" as="geometry" />
        </mxCell>
        <mxCell id="i-aHLIUqa0NCSRjYnD6V-29" value="3&lt;br&gt;View Contacts" style="ellipse;whiteSpace=wrap;html=1;aspect=fixed;fontStyle=1" parent="1" vertex="1">
          <mxGeometry x="465" y="620" width="80" height="80" as="geometry" />
        </mxCell>
        <mxCell id="i-aHLIUqa0NCSRjYnD6V-31" value="D2" style="html=1;dashed=0;whiteSpace=wrap;shape=mxgraph.dfd.dataStoreID;align=left;spacingLeft=3;points=[[0,0],[0.5,0],[1,0],[0,0.5],[1,0.5],[0,1],[0.5,1],[1,1]];" parent="1" vertex="1">
          <mxGeometry x="700" y="645" width="100" height="30" as="geometry" />
        </mxCell>
        <mxCell id="i-aHLIUqa0NCSRjYnD6V-32" value="contacts" style="text;html=1;align=center;verticalAlign=middle;resizable=0;points=[];autosize=1;strokeColor=none;fillColor=none;fontStyle=1" parent="1" vertex="1">
          <mxGeometry x="735" y="645" width="70" height="30" as="geometry" />
        </mxCell>
        <mxCell id="i-aHLIUqa0NCSRjYnD6V-37" value="Request to View Contacts" style="text;html=1;align=center;verticalAlign=middle;resizable=0;points=[];autosize=1;strokeColor=none;fillColor=none;fontStyle=1" parent="1" vertex="1">
          <mxGeometry x="290" y="630" width="170" height="30" as="geometry" />
        </mxCell>
        <mxCell id="i-aHLIUqa0NCSRjYnD6V-39" value="Receive Request Contacts" style="text;html=1;align=center;verticalAlign=middle;resizable=0;points=[];autosize=1;strokeColor=none;fillColor=none;fontStyle=1" parent="1" vertex="1">
          <mxGeometry x="535" y="630" width="170" height="30" as="geometry" />
        </mxCell>
        <mxCell id="i-aHLIUqa0NCSRjYnD6V-40" value="" style="endArrow=classic;html=1;rounded=0;entryX=1;entryY=1;entryDx=0;entryDy=0;exitX=0.102;exitY=1;exitDx=0;exitDy=0;exitPerimeter=0;" parent="1" source="i-aHLIUqa0NCSRjYnD6V-31" target="i-aHLIUqa0NCSRjYnD6V-29" edge="1">
          <mxGeometry width="50" height="50" relative="1" as="geometry">
            <mxPoint x="700" y="680" as="sourcePoint" />
            <mxPoint x="690" y="590" as="targetPoint" />
            <Array as="points">
              <mxPoint x="710" y="688" />
            </Array>
          </mxGeometry>
        </mxCell>
        <mxCell id="i-aHLIUqa0NCSRjYnD6V-41" value="Fetch Contacts" style="text;html=1;align=center;verticalAlign=middle;resizable=0;points=[];autosize=1;strokeColor=none;fillColor=none;fontStyle=1" parent="1" vertex="1">
          <mxGeometry x="570" y="690" width="110" height="30" as="geometry" />
        </mxCell>
        <mxCell id="i-aHLIUqa0NCSRjYnD6V-43" value="Show Contacts" style="text;html=1;align=center;verticalAlign=middle;resizable=0;points=[];autosize=1;strokeColor=none;fillColor=none;fontStyle=1" parent="1" vertex="1">
          <mxGeometry x="315" y="690" width="110" height="30" as="geometry" />
        </mxCell>
        <mxCell id="S4RFcMp_AwZqT-dKzcBG-15" style="edgeStyle=orthogonalEdgeStyle;rounded=0;orthogonalLoop=1;jettySize=auto;html=1;exitX=0.375;exitY=0;exitDx=0;exitDy=0;entryX=1;entryY=0.25;entryDx=0;entryDy=0;exitPerimeter=0;" edge="1" parent="1" source="i-aHLIUqa0NCSRjYnD6V-44" target="i-aHLIUqa0NCSRjYnD6V-47">
          <mxGeometry relative="1" as="geometry">
            <mxPoint x="701.7157287525381" y="461.715728752538" as="sourcePoint" />
          </mxGeometry>
        </mxCell>
        <mxCell id="i-aHLIUqa0NCSRjYnD6V-44" value="4&lt;br&gt;Manage Contacts" style="ellipse;whiteSpace=wrap;html=1;aspect=fixed;fontStyle=1" parent="1" vertex="1">
          <mxGeometry x="690" y="500" width="80" height="80" as="geometry" />
        </mxCell>
        <mxCell id="i-aHLIUqa0NCSRjYnD6V-46" value="Apply for new contact" style="text;html=1;align=center;verticalAlign=middle;resizable=0;points=[];autosize=1;strokeColor=none;fillColor=none;fontStyle=1" parent="1" vertex="1">
          <mxGeometry x="315" y="535" width="150" height="30" as="geometry" />
        </mxCell>
        <mxCell id="S4RFcMp_AwZqT-dKzcBG-16" style="edgeStyle=orthogonalEdgeStyle;rounded=0;orthogonalLoop=1;jettySize=auto;html=1;exitX=0.999;exitY=0.812;exitDx=0;exitDy=0;entryX=0;entryY=0.5;entryDx=0;entryDy=0;exitPerimeter=0;" edge="1" parent="1" source="i-aHLIUqa0NCSRjYnD6V-47" target="i-aHLIUqa0NCSRjYnD6V-44">
          <mxGeometry relative="1" as="geometry">
            <Array as="points">
              <mxPoint x="560" y="540" />
            </Array>
          </mxGeometry>
        </mxCell>
        <mxCell id="i-aHLIUqa0NCSRjYnD6V-47" value="Admin" style="rounded=0;whiteSpace=wrap;html=1;fontStyle=1" parent="1" vertex="1">
          <mxGeometry x="440" y="450" width="120" height="50" as="geometry" />
        </mxCell>
        <mxCell id="i-aHLIUqa0NCSRjYnD6V-54" value="Accept" style="text;html=1;align=center;verticalAlign=middle;resizable=0;points=[];autosize=1;strokeColor=none;fillColor=none;fontStyle=1;rotation=0;" parent="1" vertex="1">
          <mxGeometry x="435" y="410" width="60" height="30" as="geometry" />
        </mxCell>
        <mxCell id="i-aHLIUqa0NCSRjYnD6V-60" value="Receive new contact" style="text;html=1;align=center;verticalAlign=middle;resizable=0;points=[];autosize=1;strokeColor=none;fillColor=none;fontStyle=1" parent="1" vertex="1">
          <mxGeometry x="570" y="430" width="140" height="30" as="geometry" />
        </mxCell>
        <mxCell id="i-aHLIUqa0NCSRjYnD6V-61" value="Approve/decline new contact" style="text;html=1;align=center;verticalAlign=middle;resizable=0;points=[];autosize=1;strokeColor=none;fillColor=none;fontStyle=1;rotation=0;" parent="1" vertex="1">
          <mxGeometry x="450" y="760" width="190" height="30" as="geometry" />
        </mxCell>
        <mxCell id="i-aHLIUqa0NCSRjYnD6V-63" value="Receive Response&lt;div&gt;(approve/decline)&lt;/div&gt;" style="text;html=1;align=center;verticalAlign=middle;resizable=0;points=[];autosize=1;strokeColor=none;fillColor=none;fontStyle=1" parent="1" vertex="1">
          <mxGeometry x="565" y="495" width="120" height="40" as="geometry" />
        </mxCell>
        <mxCell id="i-aHLIUqa0NCSRjYnD6V-68" value="Insert new contact" style="text;html=1;align=center;verticalAlign=middle;resizable=0;points=[];autosize=1;strokeColor=none;fillColor=none;fontStyle=1" parent="1" vertex="1">
          <mxGeometry x="720" y="600" width="130" height="30" as="geometry" />
        </mxCell>
        <mxCell id="S4RFcMp_AwZqT-dKzcBG-1" value="5&lt;br&gt;review and Comment" style="ellipse;whiteSpace=wrap;html=1;aspect=fixed;fontStyle=1" vertex="1" parent="1">
          <mxGeometry x="90" y="350" width="80" height="80" as="geometry" />
        </mxCell>
        <mxCell id="S4RFcMp_AwZqT-dKzcBG-17" style="edgeStyle=orthogonalEdgeStyle;rounded=0;orthogonalLoop=1;jettySize=auto;html=1;exitX=0.5;exitY=1;exitDx=0;exitDy=0;entryX=0.301;entryY=0.041;entryDx=0;entryDy=0;entryPerimeter=0;" edge="1" parent="1" source="i-aHLIUqa0NCSRjYnD6V-44" target="i-aHLIUqa0NCSRjYnD6V-31">
          <mxGeometry relative="1" as="geometry" />
        </mxCell>
        <mxCell id="S4RFcMp_AwZqT-dKzcBG-19" style="edgeStyle=orthogonalEdgeStyle;rounded=0;orthogonalLoop=1;jettySize=auto;html=1;exitX=1;exitY=0.5;exitDx=0;exitDy=0;entryX=0.25;entryY=1;entryDx=0;entryDy=0;" edge="1" parent="1" source="i-aHLIUqa0NCSRjYnD6V-44" target="i-aHLIUqa0NCSRjYnD6V-3">
          <mxGeometry relative="1" as="geometry">
            <mxPoint x="760" y="620" as="sourcePoint" />
            <mxPoint x="200" y="410" as="targetPoint" />
            <Array as="points">
              <mxPoint x="850" y="540" />
              <mxPoint x="850" y="760" />
              <mxPoint x="210" y="760" />
            </Array>
          </mxGeometry>
        </mxCell>
        <mxCell id="S4RFcMp_AwZqT-dKzcBG-22" value="D3" style="html=1;dashed=0;whiteSpace=wrap;shape=mxgraph.dfd.dataStoreID;align=left;spacingLeft=3;points=[[0,0],[0.5,0],[1,0],[0,0.5],[1,0.5],[0,1],[0.5,1],[1,1]];" vertex="1" parent="1">
          <mxGeometry x="70" y="550" width="100" height="30" as="geometry" />
        </mxCell>
        <mxCell id="S4RFcMp_AwZqT-dKzcBG-23" value="rating_comment" style="text;html=1;align=center;verticalAlign=middle;resizable=0;points=[];autosize=1;strokeColor=none;fillColor=none;fontStyle=1" vertex="1" parent="1">
          <mxGeometry x="100" y="550" width="110" height="30" as="geometry" />
        </mxCell>
        <mxCell id="S4RFcMp_AwZqT-dKzcBG-25" value="Rating &amp;amp; comment" style="text;html=1;align=center;verticalAlign=middle;resizable=0;points=[];autosize=1;strokeColor=none;fillColor=none;fontStyle=1" vertex="1" parent="1">
          <mxGeometry x="60" y="270" width="120" height="30" as="geometry" />
        </mxCell>
        <mxCell id="S4RFcMp_AwZqT-dKzcBG-26" value="Stores Rating &amp;amp; comment" style="text;html=1;align=center;verticalAlign=middle;resizable=0;points=[];autosize=1;strokeColor=none;fillColor=none;fontStyle=1;rotation=0;" vertex="1" parent="1">
          <mxGeometry x="40" y="465" width="160" height="30" as="geometry" />
        </mxCell>
        <mxCell id="S4RFcMp_AwZqT-dKzcBG-27" style="edgeStyle=orthogonalEdgeStyle;rounded=0;orthogonalLoop=1;jettySize=auto;html=1;exitX=0.5;exitY=1;exitDx=0;exitDy=0;entryX=0.269;entryY=-0.053;entryDx=0;entryDy=0;entryPerimeter=0;" edge="1" parent="1" source="S4RFcMp_AwZqT-dKzcBG-1" target="S4RFcMp_AwZqT-dKzcBG-23">
          <mxGeometry relative="1" as="geometry" />
        </mxCell>
      </root>
    </mxGraphModel>
  </diagram>
</mxfile>
